<svg width="101" height="101" viewBox="0 0 101 101" fill="none" xmlns="http://www.w3.org/2000/svg">
<rect opacity="0.1" width="101" height="101" rx="10" fill="#1976D2"/>
<path d="M36.1414 20.0034L22 24.0067V44.0233C22 63.1368 22.0136 64.0938 22.2579 65.253C22.9093 68.2993 24.7686 71.0491 27.2521 72.6531C27.7679 72.9766 33.1964 75.8881 39.3443 79.1231L50.5 85L61.6693 79.1231C67.8036 75.8881 73.2322 72.9766 73.7479 72.6531C76.2315 71.0491 78.0908 68.2993 78.7421 65.253C78.9865 64.0938 79 63.1368 79 44.0233V24.0067L64.7229 19.9899C56.8651 17.7793 50.405 15.9866 50.3643 16.0001C50.3236 16.0001 43.9315 17.8063 36.1414 20.0034ZM62.8636 23.6832C69.4322 25.5299 74.8336 27.0396 74.8607 27.0396C74.9015 27.0396 74.9286 27.5382 74.9286 28.1448V29.2636L67.03 42.972L59.1179 56.6937H55.155H51.1921L50.7715 55.8445C49.4957 53.297 47.2293 51.8412 44.5286 51.8412C42.6015 51.8412 41.0136 52.5017 39.6429 53.8631C37.485 55.9928 36.9829 59.2413 38.3943 61.8697C38.9778 62.9615 40.4029 64.296 41.5564 64.8487C44.9493 66.4392 49.0479 65.0104 50.6629 61.6811L51.1107 60.7375L56.3222 60.7106L61.5336 60.6701L68.1972 49.1049L74.8607 37.5533L74.9015 50.5876C74.9286 62.355 74.915 63.7298 74.7114 64.579C74.4807 65.59 73.9515 66.7088 73.3679 67.4771L73.015 67.9488L61.2486 68.0162L49.4957 68.0836L46.9172 72.5722C45.4922 75.0254 44.2843 77.0473 44.2165 77.0473C44.04 77.0473 30.2786 69.7685 29.4915 69.2698C28.7043 68.7441 27.2521 67.2344 27.3471 67.0053C27.3743 66.9379 30.645 61.2632 34.5943 54.4023L41.8008 41.934L45.845 41.907L49.8893 41.8666L50.3236 42.7832C52.0336 46.3552 56.5258 47.7301 59.9593 45.7217C63.8815 43.4302 64.5736 38.1868 61.3572 34.9922C58.7379 32.3908 54.6393 32.2829 51.8979 34.7631C51.0836 35.5044 50.3779 36.4884 50.0793 37.3106L49.9028 37.8229H44.6643H39.4393L32.8029 49.3476C29.1522 55.6828 26.1529 60.8722 26.1257 60.8722C26.0986 60.8722 26.0714 54.7797 26.0714 47.3257V33.7791L33.0065 33.7522L39.9414 33.7117L43.5515 27.4304L47.175 21.1491L48.8036 20.6773C49.6993 20.4078 50.5408 20.2325 50.6764 20.2595C50.8258 20.2999 56.3086 21.8366 62.8636 23.6832ZM41.1086 23.508C40.8643 23.9393 39.955 25.5164 39.1 27.0126L37.5393 29.7354H31.8121H26.0714V28.4009V27.08L33.3729 25.0311C37.3765 23.8989 40.81 22.9284 41 22.861C41.57 22.6723 41.57 22.6992 41.1086 23.508ZM57.53 37.2298C58.575 37.6612 59.3079 38.726 59.3214 39.8178C59.335 42.244 56.4307 43.4976 54.6258 41.8397C52.7664 40.1413 53.9336 37.0545 56.4443 37.0276C56.7565 37.0141 57.245 37.1085 57.53 37.2298ZM45.5871 56.0872C47.3107 56.815 47.84 59.0257 46.6322 60.4409C46.0486 61.1149 45.3836 61.4249 44.5286 61.4384C43.0358 61.4384 41.8279 60.36 41.7057 58.9178C41.5293 56.8285 43.6328 55.2919 45.5871 56.0872ZM66.0393 72.1813C65.9579 72.2487 62.4429 74.1223 58.195 76.3599L50.5 80.4171L49.1972 79.7297C48.4914 79.3522 47.9215 78.9883 47.9486 78.9344C47.9757 78.8805 48.8715 77.3034 49.9571 75.4433L51.9114 72.06H59.0364C63.2843 72.06 66.1072 72.1139 66.0393 72.1813Z" fill="#1976D2"/>
</svg>
