<svg id="Layer_1" data-name="Layer 1" xmlns="http://www.w3.org/2000/svg" width="919.9" height="281.5" viewBox="0 0 919.9 281.5">
  <defs>
    <style>
      .cls-1 {
        fill: #1976d2;
      }
    </style>
  </defs>
  <g>
    <path class="cls-1" d="M245.7,83.1h20.9v110H245.7Z"/>
    <path class="cls-1" d="M322.2,83.1h21l42.3,110H363.3l-8.6-23.8h-44L302,193.1H279.7Zm-4.6,67.8h30.3l-15.1-42.7h-.2Z"/>
    <path class="cls-1" d="M495,174.5a43.6,43.6,0,0,0,15.4-2.5c4.5-1.6,7.8-3.2,9.9-4.9l8.9,17.8c-2.5,2.2-6.9,4.5-13.2,6.7s-13.7,3.5-22.4,3.5a60.7,60.7,0,0,1-22.7-4.3,58.3,58.3,0,0,1-18.6-12,57,57,0,0,1-12.5-18.1,55.8,55.8,0,0,1-4.5-22.5,56.5,56.5,0,0,1,4.5-22.5,54.5,54.5,0,0,1,12.4-18.2,58.5,58.5,0,0,1,41.4-16.4c8.7,0,16.2,1.1,22.4,3.4s10.7,4.5,13.2,6.7L520.3,109a41,41,0,0,0-9.9-4.9,46.1,46.1,0,0,0-15.4-2.4,40.4,40.4,0,0,0-15.7,2.8,33.2,33.2,0,0,0-11.7,7.9,34.1,34.1,0,0,0-7.3,11.6,38.2,38.2,0,0,0-2.5,14,38.8,38.8,0,0,0,2.5,14.1,35.5,35.5,0,0,0,7.3,11.7,32.9,32.9,0,0,0,11.7,7.8A40.3,40.3,0,0,0,495,174.5Z"/>
    <path class="cls-1" d="M573.1,153.5,535.5,83.1h25.3l22.7,46.5,22.7-46.5h25.1L594,153.5v39.6H573.1Z"/>
    <path class="cls-1" d="M642.5,83.1h35a57,57,0,0,1,17.3,2.5,26.6,26.6,0,0,1,12.9,8.3c3.3,3.9,5,9.2,5,15.9a27.9,27.9,0,0,1-2.6,12.1,24.5,24.5,0,0,1-6.6,8.7,17.8,17.8,0,0,1-8.4,4.3,23.3,23.3,0,0,1,7.7,2.3,26.7,26.7,0,0,1,7.2,5,25.4,25.4,0,0,1,5.4,8.2,29.2,29.2,0,0,1,2,11.5,32.9,32.9,0,0,1-3.9,16.2,27.1,27.1,0,0,1-11.7,11c-5.1,2.6-11.5,4-19.1,4H642.5Zm20.9,45.6h13.2a16.1,16.1,0,0,0,8.6-2.1,14.2,14.2,0,0,0,5.1-5.5,17.2,17.2,0,0,0,1.7-7.5c0-5.3-1.5-8.8-4.5-10.8s-7.1-2.9-12.3-2.9H663.4Zm0,47.5h15c4.3,0,7.6-.7,10.2-2.1a11.7,11.7,0,0,0,5.4-5.6,19.4,19.4,0,0,0,1.7-8.2c0-4.9-1.6-8.6-4.7-11.2s-7.5-4-13.2-4H663.4Z"/>
    <path class="cls-1" d="M733.7,83.1h68.2v18.4H754.4V129h46.9v17.8H754.4v27.8h47.5v18.5H733.7Z"/>
    <path class="cls-1" d="M821.8,83.1h42.4a36.3,36.3,0,0,1,16.7,3.8,29.2,29.2,0,0,1,11.8,11.3c2.9,4.9,4.4,10.8,4.4,17.8s-1.3,12.5-3.8,16.9a27.4,27.4,0,0,1-9.3,10,23.7,23.7,0,0,1-9.9,3.8l27,46.4H877.6l-24.4-44.8H842.6v44.8H821.8Zm20.8,50.6h14.2a22.8,22.8,0,0,0,13.4-4c3.7-2.6,5.6-7,5.6-13.1s-1.9-10.5-5.5-13.1a23.5,23.5,0,0,0-13.4-3.8H842.6Z"/>
  </g>
  <path class="cls-1" d="M258.5,64.5c-20.4-4.6-39.6-4.8-55.7-1.4a20.3,20.3,0,0,0-7.2-4.3c-8.4-2.7-22.5-7.2-36.5-11s-28.3-7.1-37.1-7.1S98.7,44,85,47.8s-24.4,7-36.5,11a19.8,19.8,0,0,0-8.9,6.1,20.5,20.5,0,0,0-4.3,9.9c-7.5,56.9,9.9,99,31.2,126.9a148.9,148.9,0,0,0,31.8,31.1,85.3,85.3,0,0,0,13.3,8c3.5,1.6,7.3,3,10.4,3s7-1.4,10.5-3a90.2,90.2,0,0,0,13.3-8,148.9,148.9,0,0,0,31.8-31.1c20.5-26.9,37.5-67.2,31.8-121.2C232,64.6,256.2,64.1,258.5,64.5Zm-90.7,46.6c-24.7,32.3-36.7,83.1-36.7,83.1H103.5L65.1,87.2H87.8l27.3,81.5,1.3,3.3c1.7-9.3,23.1-117,118.9-105.9C233.2,65.9,201.1,69.1,167.8,111.1Z"/>
</svg>
