<svg width="64" height="52" viewBox="0 0 64 52" fill="none" xmlns="http://www.w3.org/2000/svg">
<path d="M63.6099 0.700195V17.7102C63.6099 24.0102 62.5599 29.8902 60.4599 35.3502C58.2199 40.8102 54.4399 46.2002 49.1199 51.5202L39.6699 44.1702C43.8699 39.9702 46.7399 36.0502 48.2799 32.4102C49.6799 28.7702 50.3799 24.9902 50.3799 21.0702L56.2599 25.6902H38.6199V0.700195H63.6099ZM25.3899 0.700195V17.7102C25.3899 24.0102 24.3399 29.8902 22.2399 35.3502C19.9999 40.8102 16.2199 46.2002 10.8999 51.5202L1.4499 44.1702C5.6499 39.9702 8.5199 36.0502 10.0599 32.4102C11.4599 28.7702 12.1599 24.9902 12.1599 21.0702L18.0399 25.6902H0.399902V0.700195H25.3899Z" fill="white"/>
</svg>
