<svg width="92" height="91" viewBox="0 0 92 91" fill="none" xmlns="http://www.w3.org/2000/svg">
<path d="M70.1485 0.485967C69.9332 0.611598 69.3589 1.18591 68.8743 1.77817C65.1233 6.26497 62.1979 7.77253 57.3163 7.79048C55.1985 7.79048 54.1576 7.61101 52.327 6.87517C51.0348 6.37265 50.8553 6.33675 50.4066 6.55212C49.4016 7.03669 49.4375 6.67775 49.4913 20.174L49.5272 32.6473L49.9579 33.9037C51.2142 37.6367 53.9961 41.2979 58.088 44.6002C62.844 48.4229 69.2512 51.9406 71.01 51.7073C71.9074 51.5816 75.5327 49.7869 78.0274 48.2255C81.4553 46.0539 83.3936 44.5463 85.8882 42.0696C88.5085 39.4493 89.9981 37.4392 90.9314 35.2317C91.9544 32.773 91.9723 32.6653 91.9723 19.4921V7.39564L91.4519 6.87517C90.8058 6.24702 90.6083 6.22907 89.3341 6.80338C87.8445 7.48537 86.3369 7.79048 84.3448 7.79048C81.0066 7.79048 78.3325 6.96491 76.2326 5.29582C75.2276 4.50614 73.3073 2.56784 72.4099 1.41922C71.8176 0.665439 71.2433 0.270601 70.7946 0.270601C70.6511 0.270601 70.346 0.360337 70.1485 0.485967Z" fill="#1976D2"/>
<path d="M5.91536 17.1948C3.16944 17.8588 1.05167 19.9048 0.369675 22.5969C0.118414 23.5301 0.0825195 26.4914 0.0825195 47.0051C0.0825195 67.5187 0.118414 70.48 0.351728 71.4133C1.05167 74.0694 3.36686 76.1693 6.18457 76.7077C6.75888 76.8154 11.9097 76.8871 19.3937 76.8871H31.6696V78.6819C31.6696 80.5663 31.4363 81.3919 30.862 81.6252C30.7004 81.6791 27.0392 81.7329 22.7319 81.7329C17.7605 81.7329 14.6377 81.8047 14.207 81.9303C13.8301 82.038 13.2019 82.3969 12.825 82.7379C11.8559 83.6173 11.5149 84.6044 11.5867 86.3633C11.6764 88.0683 12.1789 88.9836 13.4891 89.7553L14.3505 90.2578H37.5922H60.8338L61.6414 89.8091C62.0721 89.5579 62.6823 89.0015 62.9875 88.5887C63.5079 87.8349 63.5259 87.7273 63.5259 85.9684C63.5259 84.2276 63.49 84.084 63.0054 83.384C62.6823 82.9174 62.1619 82.4687 61.5876 82.1816L60.6723 81.7329H52.596C46.5119 81.7149 44.43 81.6611 44.2147 81.4996C43.6583 81.0688 43.5147 80.4945 43.5147 78.6998V76.9051L56.3111 76.8513L69.0895 76.7974L70.1125 76.3846C72.0687 75.5949 73.6301 74.0335 74.4198 72.0773C74.7967 71.1261 74.8326 70.7851 74.8326 67.0162C74.8326 63.1755 74.8147 62.9422 74.4378 62.2243C73.8276 61.0936 72.4097 60.1963 71.2611 60.1963C69.3587 60.1963 67.564 61.973 67.564 63.8754V64.6831H37.5024H7.44087V44.4925V24.3018H22.4268C35.5641 24.3018 37.5024 24.266 38.0947 24.0147C40.5176 23.0097 41.1637 19.9586 39.3151 18.128C38.9023 17.6973 38.2562 17.2845 37.8434 17.1589C36.7845 16.8538 7.2255 16.8717 5.91536 17.1948Z" fill="#1976D2"/>
</svg>
