<svg width="77" height="93" viewBox="0 0 77 93" fill="none" xmlns="http://www.w3.org/2000/svg">
<path d="M19.4593 5.70372L0.758301 11.034V37.6856C0.758301 63.1348 0.776248 64.409 1.0993 65.9525C1.96076 70.0085 4.41953 73.6698 7.70387 75.8055C8.38586 76.2362 15.5647 80.1128 23.6948 84.4201L38.4474 92.2451L53.218 84.4201C61.3301 80.1128 68.509 76.2362 69.191 75.8055C72.4753 73.6698 74.9341 70.0085 75.7955 65.9525C76.1186 64.409 76.1365 63.1348 76.1365 37.6856V11.034L57.2561 5.68578C46.8647 2.74244 38.3218 0.355459 38.268 0.373406C38.2141 0.373406 29.761 2.77833 19.4593 5.70372ZM54.7973 10.6033C63.4838 13.0621 70.6268 15.0722 70.6626 15.0722C70.7165 15.0722 70.7524 15.7362 70.7524 16.5438V18.0335L60.3071 36.2858L49.8439 54.556H44.6033H39.3627L38.8064 53.4253C37.1193 50.0333 34.1221 48.095 30.5507 48.095C28.0022 48.095 25.9023 48.9744 24.0897 50.7871C21.2361 53.6227 20.572 57.948 22.4385 61.4477C23.2102 62.9014 25.0947 64.6782 26.6202 65.4141C31.107 67.5318 36.5271 65.6294 38.6628 61.1965L39.255 59.9402L46.1468 59.9043L53.0385 59.8504L61.8506 44.4517L70.6626 29.071L70.7165 46.4259C70.7524 62.0938 70.7344 63.9244 70.4652 65.0551C70.1601 66.4012 69.4602 67.8908 68.6885 68.9138L68.2218 69.5419L52.6616 69.6316L37.1193 69.7214L33.7094 75.6978C31.8249 78.9642 30.2276 81.6563 30.1379 81.6563C29.9046 81.6563 11.7061 71.9648 10.6652 71.3007C9.62422 70.6008 7.70387 68.5907 7.8295 68.2856C7.86539 68.1959 12.1907 60.6401 17.4133 51.505L26.9433 34.9038L32.2915 34.8679L37.6398 34.8141L38.2141 36.0345C40.4755 40.7905 46.416 42.6211 50.9566 39.947C56.1434 36.896 57.0587 29.9145 52.8052 25.661C49.3414 22.1972 43.9213 22.0536 40.296 25.3559C39.2192 26.343 38.2859 27.6531 37.8911 28.7479L37.6577 29.4299H30.7301H23.8205L15.0443 44.7748C10.2165 53.21 6.25014 60.1196 6.21425 60.1196C6.17836 60.1196 6.14246 52.0075 6.14246 42.0827V24.0458L15.3135 24.0099L24.4845 23.956L29.2585 15.5926L34.0504 7.22924L36.204 6.60108C37.3885 6.24214 38.5013 6.00883 38.6807 6.04472C38.8782 6.09856 46.1288 8.14454 54.7973 10.6033ZM26.028 10.37C25.7049 10.9443 24.5024 13.0441 23.3718 15.0363L21.3078 18.6616H13.7341H6.14246V16.8848V15.126L15.7981 12.398C21.0925 10.8905 25.6331 9.59827 25.8844 9.50853C26.6382 9.25727 26.6382 9.29316 26.028 10.37ZM47.7441 28.6402C49.126 29.2146 50.0952 30.6324 50.1131 32.0861C50.131 35.3166 46.2903 36.9857 43.9034 34.7782C41.4446 32.5168 42.9881 28.4069 46.3083 28.371C46.7211 28.3531 47.3672 28.4787 47.7441 28.6402ZM31.9505 53.7484C34.2298 54.7175 34.9298 57.6609 33.3325 59.5453C32.5607 60.4427 31.6813 60.8555 30.5507 60.8734C28.5765 60.8734 26.9792 59.4376 26.8176 57.5173C26.5843 54.7355 29.3661 52.6895 31.9505 53.7484ZM58.997 75.1773C58.8893 75.2671 54.241 77.7617 48.6235 80.741L38.4474 86.1431L36.7245 85.2278C35.7912 84.7252 35.0375 84.2407 35.0733 84.1689C35.1092 84.0971 36.2938 81.9973 37.7295 79.5206L40.3139 75.0158H49.7362C55.3537 75.0158 59.0867 75.0876 58.997 75.1773Z" fill="#1976D2"/>
</svg>
