<svg width="101" height="101" viewBox="0 0 101 101" fill="none" xmlns="http://www.w3.org/2000/svg">
<rect opacity="0.1" width="101" height="101" rx="10" fill="#1976D2"/>
<path d="M40.3379 16.8305L40.2973 18.6609L38.9459 19.1879C36.0811 20.2973 32.9054 22.1277 30.4459 24.083C29.1892 25.0815 26.4324 27.7994 25.2568 29.2138L24.5676 30.0459L24.554 28.2709V26.4959L22.5541 26.5375L20.5676 26.5791L20.527 32.542C20.4865 38.8793 20.5811 40.3492 21.0405 41.736C21.2027 42.2213 21.3108 42.6235 21.2973 42.6512C21.2703 42.665 20.8243 42.8869 20.2973 43.1504C19.1622 43.7328 17.6351 45.2166 17.027 46.3398C16.2297 47.7959 16 48.7389 16 50.5C16 52.2612 16.2297 53.2041 17.027 54.6601C17.6351 55.7834 19.1622 57.2672 20.2973 57.8496C20.8243 58.1131 21.2703 58.335 21.2973 58.3488C21.3108 58.3766 21.2027 58.7787 21.0541 59.2502C20.473 60.942 20.4459 63.0221 20.973 64.6445C21.2568 65.532 22.6622 68.0697 23.7162 69.6229C27.4459 75.1143 32.7973 79.4269 38.8108 81.7705L40.2973 82.3391L40.3379 84.1695L40.3784 86H42.3919H44.4189V84.6965V83.4069L45.4054 83.5733C45.9324 83.6703 46.8513 83.7951 47.4325 83.8506L48.473 83.9476V84.9738V86H50.5H52.5271V84.9738V83.9476L53.581 83.8506C54.1486 83.7951 55.0675 83.6703 55.6081 83.5733L56.5811 83.4069V84.6965V86H58.6081H60.6216L60.6622 84.1695L60.7027 82.3391L62.1892 81.7705C68.2027 79.4269 73.554 75.1143 77.2837 69.6229C78.3378 68.0697 79.7432 65.532 80.027 64.6445C80.554 63.0221 80.527 60.942 79.9459 59.2502C79.7973 58.7787 79.6892 58.3766 79.7027 58.3488C79.7297 58.335 80.1892 58.1131 80.7027 57.8496C81.8378 57.2672 83.3649 55.7834 83.973 54.6601C84.7703 53.2041 85 52.2612 85 50.5C85 48.7389 84.7703 47.7959 83.973 46.3398C83.3649 45.2166 81.8378 43.7328 80.7027 43.1504C80.1892 42.8869 79.7297 42.665 79.7027 42.6512C79.6892 42.6235 79.7973 42.2213 79.9595 41.736C80.4189 40.3492 80.5135 38.8793 80.473 32.542L80.4324 26.5791L78.4459 26.5375L76.4459 26.4959V28.2709L76.4324 30.0459L75.7432 29.2138C74.527 27.7717 71.8243 25.0953 70.5676 24.0969C68.0405 22.0861 64.9729 20.325 62.054 19.1879L60.7027 18.6609L60.6622 16.8305L60.6216 15H58.6081H56.5811V16.3035V17.5932L55.6081 17.4268C55.0675 17.3297 54.1486 17.2049 53.581 17.1494L52.5271 17.0523V16.0262V15H50.5H48.473V16.0262V17.0523L47.4325 17.1494C46.8513 17.2049 45.9324 17.3297 45.4054 17.4268L44.4189 17.5932V16.3035V15H42.3919H40.3784L40.3379 16.8305ZM53.0675 21.3234C56.4054 21.5314 60.473 22.7517 63.7432 24.5268C68.973 27.3418 73.2973 31.7932 75.9054 37.0627C76.473 38.1998 76.473 39.7945 75.9054 40.9178C74.9594 42.7898 72.4729 43.6357 70.6351 42.7067C69.6621 42.2213 69.1891 41.6943 68.3378 40.1689C65.7973 35.6205 61.7702 32.1953 57.0675 30.6006C49.7027 28.0906 41.6216 29.9627 36.2297 35.4541C34.6891 37.0211 33.6757 38.3523 32.6622 40.1689C31.8108 41.6943 31.3378 42.2213 30.3648 42.7067C28.527 43.6357 26.0405 42.7898 25.0946 40.9178C24.5271 39.7945 24.5271 38.1998 25.0946 37.0627C26.6892 33.8455 29.0811 30.7254 31.7838 28.3403C35.6757 24.9012 40.027 22.7517 45.0946 21.7117C46.8919 21.3512 49.6352 21.1016 50.9729 21.1848C51.4189 21.2125 52.3649 21.268 53.0675 21.3234ZM53.1351 33.8733C54.3243 34.0535 55.6892 34.4557 56.9594 34.9965L57.9324 35.4264V38.6574V41.9023H50.5H43.0676V38.6574V35.4264L44.0541 34.9965C46.973 33.7485 49.8649 33.3879 53.1351 33.8733ZM42.5135 61.6908C44.4459 64.4227 46 66.6691 45.9865 66.6969C45.8919 66.7801 43.8783 65.9619 42.8649 65.435C40.0135 63.9096 37.6892 61.5244 35.8379 58.1824C34.9459 56.5877 33.7838 55.3951 32.4189 54.7018C31.8513 54.4106 31.3648 54.1748 31.3514 54.1748C31.3514 54.1748 31.5 53.7033 31.6892 53.1348C32 52.2472 32.0405 51.859 32.0405 50.5C32.0405 49.1411 32 48.7527 31.6892 47.8652C31.5 47.2967 31.3514 46.8252 31.3514 46.8252C31.3648 46.8252 31.8513 46.5895 32.4189 46.2983C33.7568 45.6188 34.9459 44.4123 35.8243 42.8592C36.7162 41.2783 37.2567 40.4879 38.1757 39.3647L38.9459 38.4217L38.9865 47.574L39.0135 56.7264L42.5135 61.6908ZM63.7162 40.5434C64.1351 41.1258 64.7973 42.152 65.1622 42.8176C66.054 44.4123 67.2162 45.6049 68.581 46.2983C69.1486 46.5895 69.6351 46.8252 69.6487 46.8252C69.6487 46.8252 69.5 47.2967 69.3108 47.8652C69 48.7527 68.9594 49.1411 68.9594 50.5C68.9594 51.859 69 52.2472 69.3108 53.1348C69.5 53.7033 69.6487 54.1748 69.6487 54.1748C69.6351 54.1748 69.1486 54.4106 68.581 54.7018C67.2162 55.3951 66.054 56.5877 65.1622 58.1824C63.3108 61.5244 60.9865 63.9096 58.1351 65.435C57.1216 65.9619 55.1081 66.7801 55.0135 66.6969C55 66.6691 56.554 64.4227 58.4865 61.6908L61.9865 56.7264V47.5463V38.3662L62.473 38.9209C62.7297 39.226 63.2973 39.9609 63.7162 40.5434ZM57.9324 50.7219V55.3674L54.2702 60.5676C52.2567 63.4242 50.5541 65.7539 50.5 65.7539C50.4459 65.7539 48.7432 63.4242 46.7297 60.5676L43.0676 55.3674V50.7219V46.0625H50.5H57.9324V50.7219ZM25.6621 46.7281C26.4595 47.0887 27.3379 47.99 27.7027 48.8221C27.9189 49.2936 28 49.7373 28 50.5C28 51.7619 27.6756 52.5662 26.8514 53.4121C26.027 54.258 25.2433 54.5908 24.0135 54.5908C19.473 54.5908 18.4324 48.1564 22.7297 46.5756C23.5676 46.2705 24.7973 46.326 25.6621 46.7281ZM78.6351 46.7281C79.4324 47.0887 80.3108 47.99 80.6757 48.8221C80.8919 49.2936 80.9729 49.7373 80.9729 50.5C80.9729 51.7619 80.6487 52.5662 79.8243 53.4121C79 54.258 78.2162 54.5908 76.9865 54.5908C72.4459 54.5908 71.4054 48.1564 75.7027 46.5756C76.5405 46.2705 77.7702 46.326 78.6351 46.7281ZM30.4189 58.3211C31.3378 58.7787 31.8243 59.3334 32.6622 60.831C33.6757 62.6476 34.6891 63.9789 36.2297 65.5459C41.6351 71.0373 49.6891 72.9094 57.0675 70.3994C59.946 69.4149 62.6216 67.737 64.7702 65.5459C66.3108 63.9789 67.3243 62.6476 68.3378 60.831C69.1891 59.3057 69.6621 58.7787 70.6351 58.2934C72.8378 57.184 75.7297 58.5846 76.2432 61.0252C76.4189 61.8434 76.3378 62.9666 76.054 63.6045C75.2837 65.3934 73.3919 68.2362 71.5946 70.3162C69.0946 73.2006 64.8648 76.2098 61.2432 77.6797C53.3919 80.883 44.5946 80.4393 37.2567 76.4733C32.5405 73.9356 28.5811 70.0944 25.9459 65.5182C24.9189 63.7155 24.6757 63.1053 24.6757 62.2316C24.6487 60.8588 24.9325 60.0684 25.7567 59.1948C26.9594 57.8774 28.8378 57.5307 30.4189 58.3211Z" fill="#1976D2"/>
</svg>
