<svg width="34" height="32" viewBox="0 0 34 32" fill="none" xmlns="http://www.w3.org/2000/svg">
<path d="M34 3.74988C30.917 3.02511 28.0153 2.9936 25.5821 3.5293C25.2686 3.22697 24.898 2.99621 24.494 2.8518C23.2246 2.42639 21.0936 1.71738 18.9778 1.11866C16.862 0.519941 14.7009 0 13.3709 0C12.041 0 9.84962 0.519941 7.77917 1.11866C5.70872 1.71738 4.09164 2.22157 2.26298 2.8518C1.73793 3.03617 1.27229 3.3689 0.917935 3.8129C0.571556 4.26299 0.34716 4.8016 0.268082 5.37272C-0.865383 14.3378 1.76426 20.971 4.9833 25.3668C6.34091 27.2418 7.96092 28.8936 9.78922 30.2669C10.4211 30.7498 11.0939 31.1718 11.7992 31.5273C12.3282 31.7795 12.9024 32 13.3709 32C13.8394 32 14.4288 31.7795 14.9578 31.5273C15.6613 31.1682 16.3338 30.7465 16.9678 30.2669C18.7961 28.8936 20.4161 27.2418 21.7737 25.3668C24.8719 21.1285 27.441 14.7789 26.5796 6.27079C29.9951 3.76564 33.6524 3.68686 34 3.74988ZM20.2927 11.0921C16.5598 16.1812 14.7462 24.1852 14.7462 24.1852H10.5751L4.77172 7.32642H8.20232L12.3282 20.1674L12.5246 20.6874C12.7815 19.2221 16.0157 2.25308 30.4939 4.00197C30.1765 3.97046 25.3252 4.47464 20.2927 11.0921Z" fill="#1976D2"/>
</svg>
