<svg width="93" height="80" viewBox="0 0 93 80" fill="none" xmlns="http://www.w3.org/2000/svg">
<path d="M6.51596 1.24691C4.34435 1.71353 2.62142 3.13136 1.61637 5.26708L1.04206 6.46954L0.98822 31.8469C0.970273 48.3404 1.00617 57.5652 1.1318 58.2113C1.38306 59.6292 1.97532 60.706 3.10599 61.8367C4.21872 62.9494 5.3135 63.5416 6.69543 63.8108C7.26974 63.9185 12.7795 63.9903 20.8199 63.9903H33.9752L33.8854 64.3852C33.8316 64.6185 33.4368 66.7721 32.9881 69.195C32.5215 71.6179 32.1266 73.7356 32.0728 73.8972C32.001 74.1664 31.5882 74.2023 28.6808 74.2561C25.6836 74.31 25.3426 74.3459 24.8939 74.6869C23.9965 75.3509 23.6555 75.979 23.6555 76.9123C23.6555 77.8456 23.9965 78.4737 24.8939 79.1378C25.3785 79.5146 25.4503 79.5146 46.8972 79.5146C68.3441 79.5146 68.4159 79.5146 68.9004 79.1378C69.7978 78.4737 70.1388 77.8456 70.1388 76.9123C70.1388 75.979 69.7978 75.3509 68.9004 74.6869C68.4518 74.3459 68.1108 74.31 65.1136 74.2561C62.2061 74.2023 61.7933 74.1664 61.7216 73.8972C61.6677 73.7356 61.2729 71.6179 60.8062 69.195C60.3576 66.7721 59.9627 64.6185 59.9089 64.3852L59.8192 63.9903H72.9744C81.0148 63.9903 86.5246 63.9185 87.0989 63.8108C88.4808 63.5416 89.5756 62.9494 90.6883 61.8367C91.819 60.706 92.4113 59.6292 92.6625 58.2113C92.7882 57.5652 92.8241 48.3404 92.8061 31.8469L92.7523 6.46954L92.178 5.26708C91.137 3.05957 89.3064 1.60585 87.0271 1.19306C85.4298 0.905909 7.862 0.941804 6.51596 1.24691ZM86.9374 6.90027L87.4578 7.42074V27.0011V46.5815H46.8972H6.33649V27.0011V7.42074L6.85695 6.90027L7.37742 6.37981H46.8972H86.4169L86.9374 6.90027Z" fill="#1976D2"/>
<path d="M45.2819 10.9383C38.7312 12.6792 34.2265 14.0253 33.7778 14.4021C32.7548 15.2816 32.6292 15.9994 32.6292 21.4554C32.6292 26.8934 32.8086 28.4369 33.7778 31.2725C34.7828 34.1979 36.9544 37.0156 39.8978 39.2052C42.2488 40.964 45.4793 42.4536 46.8972 42.4536C48.315 42.4536 51.5455 40.964 53.8966 39.2052C56.8399 37.0156 59.0115 34.1979 60.0166 31.2725C60.9857 28.4369 61.1652 26.8934 61.1652 21.4554C61.1652 17.1122 61.1293 16.4122 60.8421 15.6764C60.2858 14.2406 60.0884 14.1509 53.6094 12.3562C50.361 11.4588 47.5074 10.6871 47.2561 10.6332C47.0049 10.5794 46.1254 10.723 45.2819 10.9383ZM46.8972 20.558V26.4806H51.9762C54.776 26.4806 57.1091 26.5165 57.163 26.5703C57.3065 26.7139 56.9656 28.3651 56.481 29.9085C55.7092 32.3493 53.6453 34.8799 50.9712 36.6567C49.8046 37.4284 47.5971 38.4873 47.1305 38.5052C46.951 38.5052 46.8972 37.1771 46.8972 32.4929V26.4806H41.7104H36.5416L36.416 25.7986C36.2724 24.9371 36.2724 19.8401 36.416 18.4582L36.5416 17.3814L41.4053 16.0174C44.0795 15.2816 46.4126 14.6534 46.5921 14.6534C46.8792 14.6355 46.8972 15.0303 46.8972 20.558Z" fill="#1976D2"/>
</svg>
