<svg width="101" height="101" viewBox="0 0 101 101" fill="none" xmlns="http://www.w3.org/2000/svg">
<rect opacity="0.1" width="101" height="101" rx="10" fill="#1976D2"/>
<path d="M46.9396 15.074C38.5617 15.7579 31.05 18.0286 25.7173 21.462L25 21.9271L25.0406 37.8219L25.0812 53.7166L25.4466 55.0844C26.7866 60.1456 30.089 65.3162 36.0172 71.6768C39.4008 75.3154 44.4898 79.9115 49.0646 83.4816L51 85L52.9355 83.4816C57.5102 79.9115 62.5992 75.3154 65.9828 71.6768C71.911 65.3162 75.2135 60.1456 76.5534 55.0844L76.9188 53.7166L76.9594 37.8219L77 21.9271L76.215 21.421C75.7819 21.1337 74.645 20.5045 73.6705 19.9984C68.7168 17.4678 63.2894 15.9358 56.6168 15.2108C54.8168 15.0193 48.7262 14.9235 46.9396 15.074ZM52.8272 26.7146C55.8184 27.2481 58.417 29.6282 59.5403 32.8564C59.8246 33.6772 59.8516 34.0191 59.9058 37.603L59.9599 41.4741H58.3223H56.6846V38.6289C56.671 37.0695 56.6168 35.387 56.5627 34.8809C56.2379 32.3503 54.3566 30.3669 51.8933 29.9565C48.7803 29.4367 45.8568 31.6664 45.4372 34.8809C45.3832 35.387 45.329 37.0695 45.3154 38.6289V41.4741H43.6913H42.0672V38.0133C42.0672 34.0464 42.189 33.2805 43.0011 31.5706C44.1786 29.1221 46.6283 27.1797 49.1729 26.7146C50.6346 26.4411 51.2842 26.4411 52.8272 26.7146ZM62.6533 43.6764C63.479 44.2645 63.4519 43.9226 63.4519 53.4019C63.4519 61.5272 63.4383 62.088 63.2082 62.5257C63.0729 62.7856 62.748 63.1139 62.4909 63.2507C62.0578 63.4832 61.4352 63.4969 51 63.4969C40.5648 63.4969 39.9422 63.4832 39.5091 63.2507C39.252 63.1139 38.9271 62.7856 38.7918 62.5257C38.5617 62.088 38.5481 61.5272 38.5481 53.4019C38.5481 43.9636 38.5211 44.2782 39.3196 43.6764C39.6986 43.4028 39.7798 43.4028 50.973 43.3891C62.1931 43.3891 62.2608 43.3891 62.6533 43.6764Z" fill="#1976D2"/>
</svg>
