<svg width="184" height="43" viewBox="0 0 184 43" fill="none" xmlns="http://www.w3.org/2000/svg">
<g clip-path="url(#clip0_1_1340)">
<path d="M48.6016 8.97266H52.8892V32.2503H48.6016V8.97266Z" fill="white"/>
<path d="M64.297 8.97266H68.6051L77.2829 32.2503H72.7286L70.9644 27.2139H61.9378L60.153 32.2503H55.5781L64.297 8.97266ZM63.3533 23.3201H69.5693L66.4716 14.2842H66.4305L63.3533 23.3201Z" fill="white"/>
<path d="M99.7444 28.3128C100.82 28.3338 101.89 28.1546 102.903 27.7838C103.827 27.4452 104.504 27.1066 104.935 26.7468L106.76 30.5136C106.247 30.9792 105.345 31.4658 104.052 31.9314C102.76 32.397 101.241 32.6721 99.4573 32.6721C97.8624 32.679 96.2819 32.3702 94.8001 31.7621C93.3827 31.1748 92.0872 30.3128 90.9845 29.2227C89.8963 28.1299 89.0256 26.8289 88.4202 25.3925C87.796 23.8885 87.4814 22.2671 87.4966 20.6312C87.4857 18.9956 87.7997 17.3752 88.4202 15.8699C89.0053 14.4209 89.8709 13.1103 90.9635 12.0185C93.2406 9.75197 96.2928 8.50467 99.4573 8.54797C101.241 8.54797 102.781 8.78076 104.052 9.26745C105.325 9.75421 106.247 10.2197 106.76 10.6853L104.935 14.4521C104.306 14.0135 103.623 13.6647 102.903 13.4151C101.886 13.0621 100.817 12.8904 99.7444 12.9073C98.6432 12.8821 97.5485 13.0835 96.5233 13.4998C95.6164 13.8731 94.7979 14.4432 94.1229 15.1715C93.4683 15.8768 92.9586 16.7119 92.6251 17.6263C92.2764 18.572 92.1024 19.5769 92.1126 20.5889C92.1024 21.6076 92.2764 22.6195 92.6251 23.5726C92.963 24.4909 93.4719 25.3321 94.1229 26.0485C94.7986 26.7707 95.6171 27.3338 96.5233 27.6991C97.5463 28.1232 98.6417 28.3319 99.7444 28.3128Z" fill="white"/>
<path d="M115.768 23.8704L108.054 8.97266H113.245L117.902 18.8128L122.558 8.97266H127.708L120.056 23.8704V32.2503H115.768V23.8704Z" fill="white"/>
<path d="M130.004 8.97331H137.184C138.387 8.96038 139.584 9.13881 140.734 9.50232C141.764 9.80706 142.684 10.4179 143.38 11.2587C144.057 12.084 144.406 13.2056 144.406 14.6234C144.416 15.5074 144.234 16.3824 143.872 17.184C143.561 17.8949 143.098 18.5242 142.518 19.025C142.033 19.4827 141.438 19.797 140.795 19.9349C141.345 20.0016 141.879 20.1663 142.374 20.4216C142.92 20.688 143.419 21.0455 143.852 21.4797C144.327 21.9783 144.703 22.5677 144.959 23.215C145.254 23.9894 145.393 24.8171 145.37 25.6486C145.392 26.8431 145.117 28.0237 144.569 29.0767C144.016 30.085 143.179 30.8965 142.169 31.4044C141.123 31.9547 139.81 32.2509 138.251 32.2509H130.004V8.97331ZM134.291 18.623H137C137.616 18.6478 138.227 18.4938 138.764 18.1785C139.208 17.8944 139.569 17.4923 139.81 17.0147C140.041 16.5196 140.16 15.9769 140.159 15.4276C140.159 14.306 139.851 13.5653 139.236 13.1421C138.62 12.7189 137.779 12.5284 136.712 12.5284H134.291V18.623ZM134.291 28.6746H137.369C138.251 28.6746 138.928 28.5265 139.461 28.2302C139.951 27.9771 140.342 27.559 140.569 27.0452C140.807 26.4999 140.926 25.9077 140.918 25.3099C140.918 24.2731 140.59 23.4901 139.954 22.9399C139.318 22.3897 138.415 22.0934 137.246 22.0934H134.291V28.6746Z" fill="white"/>
<path d="M148.715 8.97266H162.706V12.8664H152.962V18.6858H162.583V22.4525H152.962V28.3354H162.706V32.2503H148.715V8.97266Z" fill="white"/>
<path d="M166.789 8.97345H175.487C176.676 8.9558 177.85 9.23153 178.914 9.77759C179.925 10.3209 180.764 11.1504 181.334 12.1688C181.93 13.2058 182.237 14.4543 182.237 15.9356C182.237 17.4169 181.97 18.5808 181.458 19.5119C181.004 20.372 180.348 21.1001 179.549 21.628C178.94 22.0509 178.246 22.3258 177.519 22.4322L183.058 32.2511H178.236L173.231 22.7708H171.056V32.2511H166.789V8.97345ZM171.056 19.6812H173.969C174.949 19.703 175.911 19.407 176.718 18.8347C177.477 18.2846 177.867 17.3534 177.867 16.0625C177.867 14.7717 177.477 13.8406 176.739 13.2904C175.922 12.742 174.964 12.4616 173.99 12.4863H171.056V19.6812Z" fill="white"/>
<path d="M46.1532 5.03643C41.9682 4.063 38.0293 4.02068 34.7264 4.74017C34.3008 4.33411 33.7978 4.02419 33.2493 3.83022C31.5261 3.25886 28.6335 2.3066 25.7614 1.50246C22.8893 0.698328 19.9557 0 18.1503 0C16.3451 0 13.3703 0.698328 10.5598 1.50246C7.7493 2.3066 5.55418 2.98377 3.07188 3.83022C2.35915 4.07786 1.72707 4.52474 1.24605 5.12108C0.775857 5.72558 0.471252 6.44898 0.363907 7.21606C-1.17471 19.257 2.39489 28.1659 6.76457 34.07C8.60745 36.5882 10.8065 38.8067 13.2884 40.6511C14.1461 41.2998 15.0593 41.8665 16.0168 42.3441C16.7348 42.6827 17.5144 42.9789 18.1503 42.9789C18.7863 42.9789 19.5864 42.6827 20.3044 42.3441C21.2594 41.8617 22.1722 41.2953 23.0329 40.6511C25.5147 38.8067 27.7138 36.5882 29.5567 34.07C33.7623 28.3775 37.2498 19.8495 36.0805 8.42224C40.7168 5.05759 45.6814 4.95178 46.1532 5.03643ZM27.5462 14.8977C22.4791 21.7328 20.0172 32.4829 20.0172 32.4829H14.3551L6.47736 9.84004H11.1342L16.7348 27.0867L17.0015 27.785C17.3503 25.817 21.7404 3.02609 41.3938 5.37501C40.963 5.33269 34.3777 6.00985 27.5462 14.8977Z" fill="white"/>
</g>
<defs>
<clipPath id="clip0_1_1340">
<rect width="183.057" height="43" fill="white"/>
</clipPath>
</defs>
</svg>
