<svg width="93" height="93" viewBox="0 0 93 93" fill="none" xmlns="http://www.w3.org/2000/svg">
<path d="M32.9826 2.72448L32.9287 5.09351L31.134 5.7755C27.3292 7.21128 23.1116 9.58031 19.8452 12.1109C18.1761 13.4031 14.5149 16.9207 12.9535 18.7513L12.0382 19.8282L12.0202 17.5309V15.2337L9.36406 15.2875L6.72582 15.3414L6.67198 23.0587C6.61814 31.2605 6.74377 33.1629 7.35397 34.9577C7.56934 35.5858 7.71292 36.1063 7.69497 36.1422C7.65908 36.1601 7.06682 36.4473 6.36688 36.7883C4.85931 37.542 2.83128 39.4624 2.02366 40.9161C0.96477 42.8006 0.659668 44.021 0.659668 46.3003C0.659668 48.5796 0.96477 49.8 2.02366 51.6844C2.83128 53.1382 4.85931 55.0585 6.36688 55.8123C7.06682 56.1533 7.65908 56.4405 7.69497 56.4584C7.71292 56.4943 7.56934 57.0148 7.37192 57.625C6.60019 59.8145 6.5643 62.5066 7.26424 64.6064C7.64113 65.755 9.50764 69.0394 10.9075 71.0495C15.8609 78.1566 22.968 83.7381 30.9545 86.7712L32.9287 87.5071L32.9826 89.8761L33.0364 92.2451H35.7106H38.4026V90.5581V88.889L39.7128 89.1044C40.4127 89.23 41.6331 89.3915 42.4049 89.4633L43.7868 89.5889V90.917V92.2451H46.4789H49.171V90.917V89.5889L50.5708 89.4633C51.3246 89.3915 52.545 89.23 53.2629 89.1044L54.5551 88.889V90.5581V92.2451H57.2472H59.9213L59.9752 89.8761L60.029 87.5071L62.0032 86.7712C69.9897 83.7381 77.0968 78.1566 82.0502 71.0495C83.4501 69.0394 85.3166 65.755 85.6935 64.6064C86.3934 62.5066 86.3576 59.8145 85.5858 57.625C85.3884 57.0148 85.2448 56.4943 85.2628 56.4584C85.2987 56.4405 85.9089 56.1533 86.5909 55.8123C88.0984 55.0585 90.1265 53.1382 90.9341 51.6844C91.993 49.8 92.2981 48.5796 92.2981 46.3003C92.2981 44.021 91.993 42.8006 90.9341 40.9161C90.1265 39.4624 88.0984 37.542 86.5909 36.7883C85.9089 36.4473 85.2987 36.1601 85.2628 36.1422C85.2448 36.1063 85.3884 35.5858 85.6038 34.9577C86.214 33.1629 86.3396 31.2605 86.2858 23.0587L86.2319 15.3414L83.5937 15.2875L80.9375 15.2337V17.5309L80.9195 19.8282L80.0042 18.7513C78.389 16.8848 74.7996 13.421 73.1305 12.1288C69.7743 9.52647 65.7003 7.24717 61.8237 5.7755L60.029 5.09351L59.9752 2.72448L59.9213 0.35545H57.2472H54.5551V2.04249V3.71158L53.2629 3.49621C52.545 3.37058 51.3246 3.20905 50.5708 3.13727L49.171 3.01164V1.68354V0.35545H46.4789H43.7868V1.68354V3.01164L42.4049 3.13727C41.6331 3.20905 40.4127 3.37058 39.7128 3.49621L38.4026 3.71158V2.04249V0.35545H35.7106H33.0364L32.9826 2.72448ZM49.8888 8.53937C54.3218 8.80858 59.7239 10.3879 64.0671 12.6852C71.0127 16.3285 76.7558 22.0895 80.2196 28.9094C80.9734 30.3811 80.9734 32.445 80.2196 33.8988C78.9633 36.3216 75.661 37.4164 73.2202 36.214C71.928 35.5858 71.2998 34.9038 70.1692 32.9296C66.7951 27.0429 61.4468 22.61 55.2012 20.5461C45.42 17.2976 34.6876 19.7205 27.5266 26.8276C25.4806 28.8556 24.1346 30.5785 22.7886 32.9296C21.6579 34.9038 21.0297 35.5858 19.7375 36.214C17.2967 37.4164 13.9944 36.3216 12.7381 33.8988C11.9844 32.445 11.9844 30.3811 12.7381 28.9094C14.8559 24.7457 18.0326 20.7076 21.622 17.6207C26.7908 13.1698 32.5698 10.3879 39.3 9.04189C41.687 8.57527 45.3303 8.25222 47.107 8.3599C47.6993 8.3958 48.9556 8.46758 49.8888 8.53937ZM49.9786 24.7816C51.5579 25.0149 53.3706 25.5354 55.0576 26.2353L56.3498 26.7917V30.9734V35.173H46.4789H36.6079V30.9734V26.7917L37.9181 26.2353C41.7947 24.6201 45.6354 24.1534 49.9786 24.7816ZM35.8721 60.7837C38.4385 64.3193 40.5025 67.2267 40.4845 67.2626C40.3589 67.3703 37.6847 66.3114 36.3387 65.6294C32.5518 63.6552 29.4649 60.5683 27.0062 56.243C25.8216 54.1791 24.2782 52.6356 22.4655 51.7383C21.7117 51.3614 21.0656 51.0563 21.0477 51.0563C21.0477 51.0563 21.2451 50.4461 21.4964 49.7103C21.9092 48.5616 21.963 48.0591 21.963 46.3003C21.963 44.5415 21.9092 44.0389 21.4964 42.8903C21.2451 42.1545 21.0477 41.5443 21.0477 41.5443C21.0656 41.5443 21.7117 41.2392 22.4655 40.8623C24.2423 39.9829 25.8216 38.4215 26.9882 36.4114C28.1727 34.3654 28.8906 33.3424 30.111 31.8887L31.134 30.6683L31.1879 42.5134L31.2238 54.3586L35.8721 60.7837ZM64.0312 33.4142C64.5876 34.168 65.467 35.4961 65.9516 36.3575C67.1361 38.4215 68.6796 39.9649 70.4922 40.8623C71.246 41.2392 71.8921 41.5443 71.9101 41.5443C71.9101 41.5443 71.7126 42.1545 71.4614 42.8903C71.0486 44.0389 70.9947 44.5415 70.9947 46.3003C70.9947 48.0591 71.0486 48.5616 71.4614 49.7103C71.7126 50.4461 71.9101 51.0563 71.9101 51.0563C71.8921 51.0563 71.246 51.3614 70.4922 51.7383C68.6796 52.6356 67.1361 54.1791 65.9516 56.243C63.4928 60.5683 60.4059 63.6552 56.619 65.6294C55.273 66.3114 52.5989 67.3703 52.4732 67.2626C52.4553 67.2267 54.5192 64.3193 57.0857 60.7837L61.734 54.3586V42.4775V30.5965L62.3801 31.3144C62.7211 31.7092 63.4749 32.6604 64.0312 33.4142ZM56.3498 46.5874V52.5998L51.4861 59.33C48.812 63.0271 46.5507 66.0422 46.4789 66.0422C46.4071 66.0422 44.1457 63.0271 41.4716 59.33L36.6079 52.5998V46.5874V40.5572H46.4789H56.3498V46.5874ZM13.4919 41.4186C14.5508 41.8853 15.7174 43.0518 16.2019 44.1287C16.4891 44.7389 16.5968 45.3132 16.5968 46.3003C16.5968 47.9335 16.166 48.9744 15.0713 50.0692C13.9765 51.164 12.9356 51.5947 11.3024 51.5947C5.2721 51.5947 3.89016 43.2672 9.59737 41.2212C10.7101 40.8264 12.3433 40.8982 13.4919 41.4186ZM83.8449 41.4186C84.9038 41.8853 86.0704 43.0518 86.555 44.1287C86.8421 44.7389 86.9498 45.3132 86.9498 46.3003C86.9498 47.9335 86.5191 48.9744 85.4243 50.0692C84.3295 51.164 83.2886 51.5947 81.6554 51.5947C75.6251 51.5947 74.2432 43.2672 79.9504 41.2212C81.0631 40.8264 82.6963 40.8982 83.8449 41.4186ZM19.8093 56.4225C21.0297 57.0148 21.6758 57.7327 22.7886 59.6709C24.1346 62.022 25.4806 63.745 27.5266 65.773C34.7055 72.8801 45.402 75.303 55.2012 72.0545C59.024 70.7803 62.5775 68.6087 65.4311 65.773C67.4771 63.745 68.8231 62.022 70.1692 59.6709C71.2998 57.6968 71.928 57.0148 73.2202 56.3866C76.1456 54.9508 79.9863 56.7635 80.6683 59.9222C80.9016 60.9811 80.7939 62.4348 80.417 63.2604C79.394 65.5756 76.8814 69.2548 74.4945 71.9468C71.1742 75.6799 65.5567 79.5744 60.7469 81.4768C50.3196 85.6226 38.6359 85.0483 28.8906 79.9154C22.627 76.6311 17.3685 71.6597 13.8688 65.7371C12.5048 63.404 12.1818 62.6143 12.1818 61.4836C12.1459 59.7068 12.5228 58.6839 13.6175 57.5532C15.2148 55.8482 17.7095 55.3995 19.8093 56.4225Z" fill="#1976D2"/>
<path d="M43.7866 48.6336V51.3257H46.4787H49.1708V48.6336V45.9415H46.4787H43.7866V48.6336Z" fill="#1976D2"/>
</svg>
