<svg width="148" height="148" viewBox="0 0 148 148" fill="none" xmlns="http://www.w3.org/2000/svg">
<rect width="148" height="148" rx="10" fill="#D7F0FE"/>
<path d="M98.74 16.11C94.5 14.21 82.13 13 74.28 13C66.44 13 54.05 14.21 49.82 16.11C45.67 17.97 44 21.65 44 25.1V122.45C44 125.91 45.67 129.58 49.82 131.44C54.05 133.34 66.44 134.55 74.28 134.55C82.13 134.55 94.5 133.34 98.74 131.44C102.89 129.58 104.56 125.9 104.56 122.45V25.11C104.56 21.65 102.89 17.98 98.74 16.11Z" fill="#006CA2"/>
<path d="M79.8499 20.53H68.7199C68.4441 20.53 68.1796 20.4204 67.9845 20.2254C67.7895 20.0303 67.6799 19.7658 67.6799 19.49C67.6799 19.2142 67.7895 18.9496 67.9845 18.7546C68.1796 18.5596 68.4441 18.45 68.7199 18.45H79.8499C80.4299 18.45 80.8899 18.91 80.8899 19.49C80.8899 20.06 80.4299 20.53 79.8499 20.53Z" fill="white"/>
<path d="M94.1699 22.26C95.269 22.26 96.1599 21.369 96.1599 20.27C96.1599 19.171 95.269 18.28 94.1699 18.28C93.0709 18.28 92.1799 19.171 92.1799 20.27C92.1799 21.369 93.0709 22.26 94.1699 22.26Z" fill="white"/>
<path d="M49.49 32.49H99.06V114.54H49.49V32.49Z" fill="url(#paint0_linear_1033_34)"/>
<path d="M58.6501 118.71V119.41L57.1201 118.3L58.6501 117.18V117.88H59.5301C61.2501 117.88 62.3601 118.39 62.3601 119.87C62.3601 121.36 61.2501 121.87 59.5301 121.87H57.5501V121.04H59.5301C60.9901 121.04 61.5301 120.72 61.5301 119.87C61.5301 119.03 61.0001 118.71 59.5301 118.71H58.6501ZM77.1901 121.59H71.4601V118.7L74.3301 117.49L77.2001 118.7V121.59H77.1901ZM72.2901 120.75H76.3601V119.24L74.3301 118.38L72.2901 119.24V120.75ZM90.8301 121.59H86.0301V118.55H90.8301V121.59ZM86.8701 120.75H90.0101V119.38H86.8701V120.75Z" fill="white"/>
<path d="M92.1901 119.88H91.3601V118.08H87.8101V117.25H92.1901V119.88Z" fill="white"/>
<defs>
<linearGradient id="paint0_linear_1033_34" x1="74.28" y1="114.547" x2="74.28" y2="32.494" gradientUnits="userSpaceOnUse">
<stop stop-color="white"/>
<stop offset="1" stop-color="#00A0D6"/>
</linearGradient>
</defs>
</svg>
