<svg width="63" height="63" viewBox="0 0 78 78" fill="none" xmlns="http://www.w3.org/2000/svg">
<circle opacity="0.9" cx="39" cy="39" r="39" fill="url(#paint0_linear_119_178)"/>
<path d="M21.7273 60.4896C22.3818 60.8655 23.2182 60.6328 23.6 59.9884L24.4545 58.5205L25.3273 60.0063C25.7091 60.6507 26.5455 60.8655 27.2 60.5075C27.8545 60.1316 28.0727 59.326 27.7091 58.6816L26.8182 57.1779H28.5455C29.2909 57.1779 29.9091 56.5693 29.9091 55.8353C29.9091 55.1014 29.2909 54.4927 28.5455 54.4927H26.8182L27.6727 53.0248C28.0545 52.3804 27.8364 51.5569 27.1818 51.181C26.865 51.0074 26.4917 50.9626 26.1418 51.0563C25.7919 51.1499 25.493 51.3746 25.3091 51.6823L24.4545 53.1501L23.6 51.6823C23.4161 51.3746 23.1172 51.1499 22.7673 51.0563C22.4174 50.9626 22.0441 51.0074 21.7273 51.181C21.0727 51.5569 20.8545 52.3804 21.2364 53.0248L22.0909 54.4927H20.3636C19.6182 54.4927 19 55.1014 19 55.8353C19 56.5693 19.6182 57.1779 20.3636 57.1779H22.0909L21.2182 58.6637C20.8545 59.3081 21.0727 60.1316 21.7273 60.4896ZM36.2727 60.4896C36.9273 60.8655 37.7636 60.6328 38.1455 59.9884L39 58.5205L39.8727 60.0063C40.2545 60.6507 41.0909 60.8655 41.7455 60.5075C42.4 60.1316 42.6182 59.326 42.2545 58.6816L41.3818 57.1958H43.1091C43.8545 57.1958 44.4727 56.5872 44.4727 55.8532C44.4727 55.1193 43.8545 54.5106 43.1091 54.5106H41.3636L42.2182 53.0427C42.398 52.7334 42.4473 52.3668 42.3555 52.022C42.2637 51.6772 42.0381 51.3817 41.7273 51.1989C41.5733 51.1107 41.4031 51.0533 41.2266 51.0299C41.05 51.0064 40.8705 51.0175 40.6983 51.0624C40.5261 51.1072 40.3645 51.1851 40.2229 51.2915C40.0812 51.3978 39.9622 51.5306 39.8727 51.6823L39 53.1501L38.1455 51.6823C38.0566 51.5299 37.938 51.3964 37.7964 51.2895C37.6548 51.1826 37.4931 51.1044 37.3207 51.0595C37.1482 51.0145 36.9683 51.0037 36.7916 51.0276C36.6148 51.0516 36.4447 51.1098 36.2909 51.1989C35.6364 51.5748 35.4182 52.3983 35.8 53.0427L36.6545 54.5106H34.9091C34.7309 54.5083 34.554 54.5408 34.3886 54.6063C34.2233 54.6718 34.0728 54.769 33.9459 54.8922C33.8191 55.0155 33.7183 55.1623 33.6496 55.3242C33.5808 55.4861 33.5454 55.6598 33.5455 55.8353C33.5455 56.5693 34.1636 57.1779 34.9091 57.1779H36.6364L35.7636 58.6637C35.4 59.3081 35.6182 60.1316 36.2727 60.4896ZM59 55.8353C59 55.1014 58.3818 54.4927 57.6364 54.4927H55.9091L56.7636 53.0248C56.9435 52.7155 56.9928 52.3489 56.901 52.0041C56.8092 51.6593 56.5836 51.3638 56.2727 51.181C56.1187 51.0928 55.9486 51.0354 55.772 51.012C55.5955 50.9885 55.416 50.9996 55.2438 51.0445C55.0716 51.0893 54.91 51.1672 54.7683 51.2736C54.6267 51.3799 54.5077 51.5127 54.4182 51.6644L53.5455 53.1501L52.6909 51.6823C52.6021 51.5299 52.4835 51.3964 52.3419 51.2895C52.2003 51.1826 52.0386 51.1044 51.8661 51.0595C51.6936 51.0145 51.5138 51.0037 51.337 51.0276C51.1603 51.0516 50.9901 51.1098 50.8364 51.1989C50.1818 51.5748 49.9636 52.3983 50.3455 53.0427L51.2 54.5106H49.4727C49.2932 54.5066 49.1147 54.5378 48.9475 54.6025C48.7804 54.6672 48.6281 54.764 48.4994 54.8874C48.3707 55.0107 48.2683 55.1581 48.1982 55.3208C48.1281 55.4836 48.0916 55.6585 48.0909 55.8353C48.0909 56.5693 48.7091 57.1779 49.4545 57.1779H51.1818L50.3091 58.6637C50.2188 58.816 50.1603 58.9845 50.1371 59.1594C50.1138 59.3343 50.1263 59.512 50.1737 59.682C50.2211 59.8521 50.3025 60.0111 50.4132 60.1498C50.5239 60.2885 50.6616 60.404 50.8182 60.4896C51.4727 60.8655 52.3091 60.6328 52.6909 59.9884L53.5455 58.5205L54.4182 60.0063C54.8 60.6507 55.6364 60.8655 56.2909 60.5075C56.9455 60.1316 57.1636 59.326 56.8 58.6816L55.9273 57.1958H57.6545C58.3818 57.1779 59 56.5693 59 55.8353Z" fill="white"/>
<path d="M48.7 24.0357H45.02V21.3571C45.02 19.9363 44.4384 18.5737 43.4032 17.5691C42.368 16.5644 40.964 16 39.5 16C38.036 16 36.632 16.5644 35.5968 17.5691C34.5616 18.5737 33.98 19.9363 33.98 21.3571V24.0357H30.3C29.6909 24.0386 29.1077 24.2748 28.677 24.6927C28.2463 25.1107 28.003 25.6768 28 26.2679V38.7679C28.003 39.359 28.2463 39.925 28.677 40.343C29.1077 40.761 29.6909 40.9971 30.3 41H48.7C49.3091 40.9971 49.8923 40.761 50.323 40.343C50.7537 39.925 50.997 39.359 51 38.7679V26.2679C50.997 25.6768 50.7537 25.1107 50.323 24.6927C49.8923 24.2748 49.3091 24.0386 48.7 24.0357ZM36.74 21.3571C36.74 20.6467 37.0308 19.9654 37.5484 19.4631C38.066 18.9608 38.768 18.6786 39.5 18.6786C40.232 18.6786 40.934 18.9608 41.4516 19.4631C41.9692 19.9654 42.26 20.6467 42.26 21.3571V24.0357H36.74V21.3571ZM48.24 38.3214H30.76V26.7143H48.24V38.3214ZM39.5 28.0536C38.6442 28.0513 37.8143 28.3386 37.1532 28.866C36.4921 29.3933 36.041 30.1279 35.8776 30.9432C35.7142 31.7584 35.8487 32.6035 36.258 33.3329C36.6673 34.0624 37.3257 34.6305 38.12 34.9397V35.6429C38.12 35.9981 38.2654 36.3387 38.5242 36.5899C38.783 36.841 39.134 36.9821 39.5 36.9821C39.866 36.9821 40.217 36.841 40.4758 36.5899C40.7346 36.3387 40.88 35.9981 40.88 35.6429V34.9397C41.6743 34.6305 42.3327 34.0624 42.742 33.3329C43.1513 32.6035 43.2858 31.7584 43.1224 30.9432C42.959 30.1279 42.5079 29.3933 41.8468 28.866C41.1857 28.3386 40.3558 28.0513 39.5 28.0536ZM39.5 30.7321C39.682 30.7321 39.8598 30.7845 40.0111 30.8826C40.1624 30.9807 40.2803 31.1202 40.35 31.2833C40.4196 31.4465 40.4378 31.626 40.4023 31.7992C40.3668 31.9724 40.2792 32.1315 40.1505 32.2563C40.0219 32.3812 39.8579 32.4662 39.6795 32.5007C39.501 32.5352 39.316 32.5175 39.1479 32.4499C38.9798 32.3823 38.8361 32.2679 38.735 32.121C38.634 31.9742 38.58 31.8016 38.58 31.625C38.58 31.3882 38.6769 31.1611 38.8495 30.9937C39.022 30.8262 39.256 30.7321 39.5 30.7321Z" fill="white"/>
<defs>
<linearGradient id="paint0_linear_119_178" x1="-8.35714" y1="15.9184" x2="79.9687" y2="50.2516" gradientUnits="userSpaceOnUse">
<stop stop-color="#053C8E"/>
<stop offset="1" stop-color="#0451C4"/>
</linearGradient>
</defs>
</svg>
