<svg width="48" height="48" viewBox="0 0 48 48" fill="none" xmlns="http://www.w3.org/2000/svg">
<rect opacity="0.1" width="48" height="48" rx="10" fill="#1976D2"/>
<path d="M31.8115 9.07116C31.7406 9.11268 31.5514 9.30245 31.3918 9.49815C30.1563 10.9807 29.1927 11.4789 27.5847 11.4848C26.8871 11.4848 26.5443 11.4255 25.9413 11.1824C25.5157 11.0163 25.4566 11.0045 25.3088 11.0756C24.9777 11.2357 24.9895 11.1171 25.0073 15.5767L25.0191 19.6983L25.161 20.1135C25.5748 21.347 26.4911 22.5568 27.8389 23.648C29.4055 24.9111 31.5159 26.0735 32.0953 25.9964C32.3909 25.9548 33.585 25.3618 34.4067 24.8459C35.5358 24.1283 36.1743 23.6301 36.996 22.8118C37.8591 21.9459 38.3497 21.2817 38.6571 20.5523C38.9941 19.7399 39 19.7043 39 15.3514V11.3543L38.8286 11.1824C38.6158 10.9748 38.5507 10.9689 38.131 11.1586C37.6404 11.384 37.1438 11.4848 36.4876 11.4848C35.388 11.4848 34.5072 11.212 33.8155 10.6605C33.4845 10.3996 32.852 9.75908 32.5564 9.37954C32.3613 9.13047 32.1721 9 32.0243 9C31.9771 9 31.8766 9.02965 31.8115 9.07116Z" fill="#1976D2"/>
<path d="M10.9508 15.0831C10.0324 15.3005 9.32413 15.9702 9.09604 16.8515C9.012 17.157 9 18.1263 9 24.8414C9 31.5565 9.012 32.5258 9.09004 32.8313C9.32413 33.7008 10.0984 34.3882 11.0408 34.5644C11.2329 34.5997 12.9556 34.6232 15.4586 34.6232H19.5642V35.2107C19.5642 35.8275 19.4862 36.0978 19.2941 36.1742C19.2401 36.1918 18.0156 36.2094 16.575 36.2094C14.9124 36.2094 13.8679 36.2329 13.7239 36.274C13.5978 36.3093 13.3877 36.4268 13.2617 36.5384C12.9376 36.8263 12.8235 37.1494 12.8475 37.7252C12.8775 38.2833 13.0456 38.5829 13.4838 38.8355L13.7719 39H21.545H29.3181L29.5882 38.8531C29.7323 38.7709 29.9364 38.5888 30.0384 38.4536C30.2125 38.2069 30.2185 38.1717 30.2185 37.5959C30.2185 37.026 30.2065 36.979 30.0444 36.7499C29.9364 36.5972 29.7623 36.4503 29.5702 36.3563L29.2641 36.2094H26.563C24.5282 36.2035 23.8319 36.1859 23.7599 36.133C23.5738 35.992 23.5258 35.804 23.5258 35.2165V34.6291L27.8055 34.6114L32.0792 34.5938L32.4214 34.4587C33.0756 34.2002 33.5978 33.689 33.8619 33.0487C33.988 32.7373 34 32.6257 34 31.392C34 30.1347 33.994 30.0584 33.868 29.8234C33.6639 29.4532 33.1897 29.1595 32.8055 29.1595C32.1693 29.1595 31.569 29.7411 31.569 30.3638V30.6282H21.515H11.461V24.0189V17.4096H16.473C20.8667 17.4096 21.515 17.3979 21.7131 17.3156C22.5234 16.9866 22.7395 15.9879 22.1212 15.3886C21.9832 15.2476 21.7671 15.1125 21.629 15.0714C21.2749 14.9715 11.389 14.9774 10.9508 15.0831Z" fill="#1976D2"/>
</svg>
