<svg width="101" height="101" viewBox="0 0 101 101" fill="none" xmlns="http://www.w3.org/2000/svg">
<rect opacity="0.1" width="101" height="101" rx="10" fill="#1976D2"/>
<path d="M33.4706 17.1361C31.7607 17.633 30.5665 19.2479 30.5665 21.0973C30.5665 23.0434 31.7471 24.5616 33.6741 25.0999L34.4883 25.3346L36.3611 28.7023C37.4196 30.6069 38.1931 32.1528 38.1524 32.277C38.1117 32.3874 36.1168 35.9483 33.7148 40.1717L29.3451 47.8732H26.4682H23.5912L22.967 47.1969C20.3479 44.3537 15.666 46.4792 16.0189 50.3576C16.2496 53.0352 18.9772 54.7604 21.4742 53.7943C22.0577 53.5734 22.492 53.2698 22.9941 52.7453L23.7133 52.0138L26.5225 52.0414L29.3451 52.0828L33.7826 59.881C36.2253 64.1734 38.2203 67.7344 38.2203 67.8172C38.2203 67.8862 37.3518 69.501 36.2932 71.3919L34.3662 74.8424L33.5791 75.077C31.6657 75.6567 30.5529 77.1473 30.58 79.1348C30.5936 80.7358 31.4621 82.1022 32.9142 82.82C33.8777 83.2892 35.3297 83.2616 36.3611 82.7509C37.2296 82.3093 37.8674 81.6467 38.2881 80.7358C38.6817 79.8525 38.6817 78.2791 38.2746 77.3957L37.9896 76.7471L39.9166 73.2827L41.83 69.8184H50.7187H59.6074L61.5208 73.2689L63.4343 76.7332L63.095 77.5752C62.3215 79.5489 63.19 81.8124 65.0763 82.7509C66.1212 83.2754 67.5597 83.2892 68.5504 82.7924C69.9889 82.0885 70.8438 80.7358 70.8574 79.1348C70.8845 77.1473 69.7717 75.6567 67.8583 75.077L67.0712 74.8424L65.1442 71.3919C64.0856 69.501 63.2171 67.8862 63.2171 67.8172C63.2171 67.7344 65.2121 64.1734 67.6548 59.881L72.0923 52.0828L74.915 52.0414L77.7241 52.0138L78.4433 52.7453C80.5061 54.8985 83.6815 54.3878 85.0793 51.6964C85.5271 50.8544 85.5136 49.1706 85.0657 48.2321C83.7901 45.6097 80.4246 45.0715 78.4704 47.1969L77.8462 47.8732H74.9692H72.0923L67.7226 40.1717C65.3206 35.9483 63.3257 32.3874 63.285 32.277C63.2443 32.1528 64.0178 30.6069 65.0763 28.7023L66.9491 25.3346L67.7633 25.0999C69.731 24.5616 70.8845 23.0434 70.8574 21.0283C70.8438 19.4273 69.921 17.9781 68.5233 17.3294C67.5326 16.8739 66.0806 16.9153 65.0763 17.4122C63.2171 18.3369 62.3622 20.49 63.0679 22.5051L63.3664 23.3747L61.5073 26.7148L59.6481 30.0687H50.7187H41.7893L39.9301 26.7285L38.0845 23.3885L38.3831 22.4499C38.8581 20.9317 38.5731 19.4687 37.5688 18.2955C36.6597 17.2466 34.8548 16.7359 33.4706 17.1361ZM52.7271 38.0876C54.722 38.7777 56.2148 40.4339 56.7712 42.5595C56.8797 42.9735 56.9612 43.9949 56.9612 45.0715V46.9071H57.8432H58.7253V54.0842V61.2612H50.7187H42.7121V54.0842V46.9071H43.5942H44.4762V45.0715C44.4762 44.0777 44.5441 42.9873 44.612 42.6699C45.0191 40.8894 46.3897 39.1642 48.0453 38.3636C49.4838 37.6597 51.2343 37.5631 52.7271 38.0876Z" fill="#1976D2"/>
<path d="M50.2297 42.0029C49.5926 42.1519 49.0909 42.5841 48.7927 43.21C48.5758 43.6869 48.5352 44.0893 48.5352 45.5795V47.3678H50.7042H52.8732V45.5795C52.8732 44.0893 52.8325 43.6869 52.6021 43.21C52.1818 42.286 51.1515 41.7644 50.2297 42.0029Z" fill="#1976D2"/>
<path d="M46.3672 53.8746V57.1281H50.163H53.9587V53.8746V50.6211H50.163H46.3672V53.8746Z" fill="#1976D2"/>
</svg>
