<svg width="69" height="93" viewBox="0 0 69 93" fill="none" xmlns="http://www.w3.org/2000/svg">
<path d="M29.1393 0.534672C18.03 1.43203 8.06927 4.41127 0.998077 8.91601L0.046875 9.52622L0.100717 30.3809L0.154558 51.2355L0.639133 53.0302C2.41591 59.6707 6.79502 66.4547 14.6559 74.8002C19.1427 79.5741 25.8908 85.6044 31.957 90.2886L34.5234 92.2808L37.0899 90.2886C43.1561 85.6044 49.9042 79.5741 54.391 74.8002C62.2519 66.4547 66.631 59.6707 68.4078 53.0302L68.8923 51.2355L68.9462 30.3809L69 9.52622L67.9591 8.86217C67.3848 8.48528 65.8772 7.65971 64.585 6.99566C58.0163 3.67543 50.8195 1.66535 41.9715 0.714144C39.5846 0.462883 31.5083 0.337253 29.1393 0.534672ZM36.9463 15.8077C40.9127 16.5077 44.3585 19.6305 45.8481 23.866C46.225 24.9429 46.2609 25.3915 46.3327 30.0937L46.4045 35.1728H44.2329H42.0613V31.4398C42.0433 29.3938 41.9715 27.1863 41.8997 26.5222C41.469 23.202 38.9744 20.5996 35.708 20.0612C31.5801 19.3792 27.7035 22.3046 27.1471 26.5222C27.0754 27.1863 27.0036 29.3938 26.9856 31.4398V35.1728H24.832H22.6783V30.6321C22.6783 25.4274 22.8398 24.4224 23.9167 22.179C25.4781 18.9664 28.7265 16.4179 32.1006 15.8077C34.0389 15.4488 34.9003 15.4488 36.9463 15.8077ZM49.976 38.0623C51.0708 38.834 51.0349 38.3853 51.0349 50.8227C51.0349 61.4834 51.0169 62.2192 50.7118 62.7935C50.5324 63.1345 50.1016 63.5652 49.7606 63.7447C49.1863 64.0498 48.3607 64.0678 34.5234 64.0678C20.6862 64.0678 19.8606 64.0498 19.2863 63.7447C18.9453 63.5652 18.5145 63.1345 18.3351 62.7935C18.03 62.2192 18.012 61.4834 18.012 50.8227C18.012 38.4392 17.9761 38.8519 19.035 38.0623C19.5375 37.7033 19.6452 37.7033 34.4876 37.6854C49.3658 37.6854 49.4555 37.6854 49.976 38.0623Z" fill="#1976D2"/>
</svg>
