<svg width="39" height="36" viewBox="0 0 39 36" fill="none" xmlns="http://www.w3.org/2000/svg">
<path d="M20.8008 1.28517C20.8007 1.09985 20.7602 0.916741 20.6818 0.748382C20.6035 0.580023 20.4893 0.430396 20.3471 0.309753C20.2049 0.18911 20.0379 0.100303 19.8577 0.0494179C19.6775 -0.00146768 19.4884 -0.0132294 19.3031 0.0149388L1.10244 2.76625C0.795586 2.81291 0.515747 2.96664 0.313542 3.19962C0.111338 3.4326 0.000118133 3.72945 0 4.03648V31.961C0.000118133 32.268 0.111338 32.5648 0.313542 32.7978C0.515747 33.0308 0.795586 33.1845 1.10244 33.2312L19.3031 35.9851C19.4884 36.0132 19.6775 36.0015 19.8577 35.9506C20.0379 35.8997 20.2049 35.8109 20.3471 35.6902C20.4893 35.5696 20.6035 35.42 20.6818 35.2516C20.7602 35.0833 20.8007 34.9001 20.8008 34.7148V17.9987H34.2485L31.6562 20.246C31.4122 20.4745 31.2671 20.7874 31.2513 21.1193C31.2356 21.4512 31.3503 21.7763 31.5716 22.0263C31.7928 22.2764 32.1034 22.432 32.4381 22.4606C32.7728 22.4892 33.1058 22.3885 33.3671 22.1797L38.5569 17.6799C38.6961 17.5592 38.8076 17.4105 38.8841 17.2438C38.9605 17.0771 39 16.8961 39 16.7131C39 16.53 38.9605 16.349 38.8841 16.1823C38.8076 16.0156 38.6961 15.8669 38.5569 15.7462L33.3671 11.2464C33.1078 11.0221 32.769 10.9088 32.4252 10.9314C32.0815 10.9541 31.7609 11.1109 31.534 11.3673C31.3071 11.6237 31.1926 11.9587 31.2155 12.2987C31.2384 12.6387 31.3969 12.9557 31.6562 13.1801L34.2485 15.4274H20.8008V1.28517ZM14.3006 21.2129C13.7834 21.2129 13.2874 21.0097 12.9216 20.648C12.5559 20.2864 12.3505 19.7958 12.3505 19.2844C12.3505 18.7729 12.5559 18.2824 12.9216 17.9207C13.2874 17.5591 13.7834 17.3559 14.3006 17.3559C14.8177 17.3559 15.3138 17.5591 15.6795 17.9207C16.0452 18.2824 16.2506 18.7729 16.2506 19.2844C16.2506 19.7958 16.0452 20.2864 15.6795 20.648C15.3138 21.0097 14.8177 21.2129 14.3006 21.2129ZM24.701 33.4266H23.4009V20.57H26.001V32.1409C26.001 32.4819 25.864 32.8089 25.6202 33.05C25.3764 33.2912 25.0458 33.4266 24.701 33.4266ZM23.4009 12.8561V2.57083H24.701C25.0458 2.57083 25.3764 2.70628 25.6202 2.94739C25.864 3.18849 26.001 3.51551 26.001 3.85648V12.8561H23.4009Z" fill="white"/>
</svg>
