<svg width="68" height="68" viewBox="0 0 68 68" fill="none" xmlns="http://www.w3.org/2000/svg">
<rect width="68" height="68" rx="34" fill="url(#paint0_linear_316_2)"/>
<path d="M35.8008 17.2852C35.8007 17.0999 35.7602 16.9167 35.6818 16.7484C35.6035 16.58 35.4893 16.4304 35.3471 16.3098C35.2049 16.1891 35.0379 16.1003 34.8577 16.0494C34.6775 15.9985 34.4884 15.9868 34.3031 16.0149L16.1024 18.7662C15.7956 18.8129 15.5157 18.9666 15.3135 19.1996C15.1113 19.4326 15.0001 19.7294 15 20.0365V47.961C15.0001 48.268 15.1113 48.5648 15.3135 48.7978C15.5157 49.0308 15.7956 49.1845 16.1024 49.2312L34.3031 51.9851C34.4884 52.0132 34.6775 52.0015 34.8577 51.9506C35.0379 51.8997 35.2049 51.8109 35.3471 51.6902C35.4893 51.5696 35.6035 51.42 35.6818 51.2516C35.7602 51.0833 35.8007 50.9002 35.8008 50.7148V33.9987H49.2485L46.6562 36.246C46.4122 36.4745 46.2671 36.7874 46.2513 37.1193C46.2356 37.4512 46.3503 37.7763 46.5716 38.0263C46.7928 38.2764 47.1034 38.432 47.4381 38.4606C47.7728 38.4892 48.1058 38.3885 48.3671 38.1797L53.5569 33.6799C53.6961 33.5592 53.8076 33.4105 53.884 33.2438C53.9605 33.0771 54 32.8961 54 32.7131C54 32.53 53.9605 32.349 53.884 32.1823C53.8076 32.0156 53.6961 31.8669 53.5569 31.7462L48.3671 27.2464C48.1078 27.0221 47.769 26.9088 47.4252 26.9314C47.0815 26.9541 46.7609 27.1109 46.534 27.3673C46.3071 27.6237 46.1926 27.9587 46.2155 28.2987C46.2384 28.6387 46.3969 28.9557 46.6562 29.1801L49.2485 31.4274H35.8008V17.2852ZM29.3006 37.2129C28.7834 37.2129 28.2874 37.0097 27.9216 36.648C27.5559 36.2864 27.3505 35.7958 27.3505 35.2844C27.3505 34.7729 27.5559 34.2824 27.9216 33.9207C28.2874 33.5591 28.7834 33.3559 29.3006 33.3559C29.8177 33.3559 30.3138 33.5591 30.6795 33.9207C31.0452 34.2824 31.2506 34.7729 31.2506 35.2844C31.2506 35.7958 31.0452 36.2864 30.6795 36.648C30.3138 37.0097 29.8177 37.2129 29.3006 37.2129ZM39.701 49.4266H38.4009V36.57H41.001V48.1409C41.001 48.4819 40.864 48.8089 40.6202 49.05C40.3764 49.2912 40.0458 49.4266 39.701 49.4266ZM38.4009 28.8561V18.5708H39.701C40.0458 18.5708 40.3764 18.7063 40.6202 18.9474C40.864 19.1885 41.001 19.5155 41.001 19.8565V28.8561H38.4009Z" fill="white"/>
<defs>
<linearGradient id="paint0_linear_316_2" x1="1.22523" y1="34" x2="68" y2="34" gradientUnits="userSpaceOnUse">
<stop stop-color="#1976D2"/>
<stop offset="1" stop-color="#0F579E"/>
</linearGradient>
</defs>
</svg>
