<svg width="56" height="56" viewBox="0 0 56 56" fill="none" xmlns="http://www.w3.org/2000/svg">
<path d="M18.6641 18.668V30.7415C18.6687 32.5081 19.1725 34.2375 20.1174 35.7303C21.0623 37.2231 22.4098 38.4185 24.0045 39.1787L27.9973 41.0678L31.9901 39.1769C33.5848 38.4166 34.9323 37.2213 35.8772 35.7285C36.8221 34.2357 37.3259 32.5063 37.3306 30.7396V18.668H18.6641ZM33.5973 30.7415C33.594 31.801 33.2913 32.838 32.7243 33.733C32.1572 34.628 31.3488 35.3446 30.3922 35.8001L27.9973 36.9369L25.6024 35.8038C24.6452 35.348 23.8364 34.6309 23.2694 33.7351C22.7023 32.8394 22.4 31.8016 22.3974 30.7415V22.4013H33.5973V30.7415Z" fill="#1976D2"/>
<path d="M54.9067 30.6403C55.6066 29.9402 55.9998 28.9908 55.9998 28.0008C55.9998 27.0109 55.6066 26.0615 54.9067 25.3614L44.1044 14.5591L49.5177 9.21672C50.3162 9.41549 51.1579 9.34518 51.9123 9.01669C52.6667 8.68821 53.2917 8.11992 53.6901 7.39999C54.0886 6.68007 54.2383 5.84877 54.116 5.03507C53.9937 4.22138 53.6063 3.47078 53.0139 2.89975C52.4215 2.32871 51.6572 1.96917 50.8395 1.8769C50.0219 1.78463 49.1966 1.9648 48.4918 2.38944C47.7871 2.81409 47.2421 3.45947 46.9416 4.22546C46.6411 4.99144 46.6017 5.8352 46.8297 6.62581L41.465 11.9196L30.6403 1.09306C29.9402 0.393174 28.9908 0 28.0008 0C27.0109 0 26.0615 0.393174 25.3614 1.09306L14.5591 11.8991L9.21672 6.48208C9.41446 5.68343 9.34311 4.84185 9.01373 4.0879C8.68436 3.33394 8.11538 2.70976 7.39505 2.31218C6.67473 1.9146 5.84333 1.76585 5.02984 1.88901C4.21635 2.01216 3.46624 2.40034 2.89587 2.99332C2.32551 3.5863 1.96678 4.35093 1.87534 5.16859C1.7839 5.98626 1.96485 6.81125 2.39012 7.51557C2.8154 8.2199 3.46123 8.76419 4.22742 9.06401C4.9936 9.36383 5.83732 9.40242 6.62768 9.17379L11.9196 14.5367L1.09306 25.3614C0.393174 26.0615 0 27.0109 0 28.0008C0 28.9908 0.393174 29.9402 1.09306 30.6403L11.9196 41.465L6.62768 46.8279C5.83899 46.6007 4.9974 46.64 4.23334 46.9398C3.46929 47.2395 2.82545 47.783 2.40162 48.4858C1.97779 49.1887 1.79764 50.0117 1.8891 50.8273C1.98055 51.643 2.3385 52.4057 2.90747 52.9972C3.47644 53.5887 4.22464 53.976 5.03611 54.0991C5.84757 54.2222 6.67698 54.0742 7.39577 53.678C8.11456 53.2818 8.68259 52.6596 9.01181 51.9077C9.34103 51.1559 9.41306 50.3165 9.21672 49.5196L14.5591 44.1063L25.3614 54.9067C26.0615 55.6066 27.0109 55.9998 28.0008 55.9998C28.9908 55.9998 29.9402 55.6066 30.6403 54.9067L41.4668 44.082L46.8279 49.3758C46.6007 50.1645 46.64 51.0061 46.9398 51.7702C47.2395 52.5342 47.783 53.1781 48.4858 53.6019C49.1887 54.0257 50.0117 54.2059 50.8273 54.1144C51.643 54.023 52.4057 53.665 52.9972 53.0961C53.5887 52.5271 53.976 51.7789 54.0991 50.9674C54.2222 50.156 54.0742 49.3265 53.678 48.6077C53.2818 47.889 52.6596 47.3209 51.9077 46.9917C51.1559 46.6625 50.3165 46.5905 49.5196 46.7868L44.1063 41.4426L54.9067 30.6403ZM28.0008 52.2673L3.73437 28.0008L28.0008 3.73437L52.2673 28.0008L28.0008 52.2673Z" fill="#1976D2"/>
</svg>
