<svg width="93" height="87" viewBox="0 0 93 87" fill="none" xmlns="http://www.w3.org/2000/svg">
<path d="M23.7086 0.460325C21.4472 1.10642 19.8679 3.20625 19.8679 5.61117C19.8679 8.14173 21.4293 10.1159 23.9778 10.8159L25.0546 11.121L27.5313 15.5001C28.9312 17.9768 29.9542 19.9869 29.9003 20.1484C29.8465 20.292 27.2083 24.9224 24.0316 30.4142L18.2526 40.4287H14.4478H10.643L9.81743 39.5493C6.35362 35.8522 0.161834 38.6161 0.628461 43.6592C0.933564 47.141 4.54095 49.3844 7.84324 48.1281C8.61496 47.8409 9.18928 47.4461 9.85332 46.7641L10.8045 45.8129L14.5196 45.8488L18.2526 45.9026L24.1213 56.0428C27.3518 61.6244 29.9901 66.2548 29.9901 66.3625C29.9901 66.4522 28.8415 68.552 27.4416 71.0108L24.8931 75.4976L23.8521 75.8027C21.3216 76.5565 19.8499 78.4948 19.8858 81.0792C19.9038 83.161 21.0524 84.9378 22.9727 85.8711C24.247 86.4813 26.1673 86.4454 27.5313 85.7813C28.6799 85.207 29.5235 84.3455 30.0798 83.161C30.6003 82.0124 30.6003 79.9664 30.0619 78.8178L29.685 77.9743L32.2335 73.4695L34.764 68.9648H46.5194H58.2749L60.8054 73.4516L63.336 77.9563L62.8873 79.0511C61.8643 81.6176 63.0129 84.5609 65.5076 85.7813C66.8895 86.4633 68.7919 86.4813 70.1021 85.8352C72.0045 84.9199 73.1351 83.161 73.1531 81.0792C73.189 78.4948 71.7173 76.5565 69.1868 75.8027L68.1458 75.4976L65.5973 71.0108C64.1974 68.552 63.0488 66.4522 63.0488 66.3625C63.0488 66.2548 65.6871 61.6244 68.9176 56.0428L74.7863 45.9026L78.5193 45.8488L82.2344 45.8129L83.1856 46.7641C85.9136 49.5639 90.1132 48.8998 91.9618 45.4001C92.554 44.3053 92.5361 42.1158 91.9438 40.8954C90.2568 37.4854 85.8059 36.7855 83.2215 39.5493L82.3959 40.4287H78.5911H74.7863L69.0073 30.4142C65.8306 24.9224 63.1924 20.292 63.1386 20.1484C63.0847 19.9869 64.1077 17.9768 65.5076 15.5001L67.9843 11.121L69.0611 10.8159C71.6635 10.1159 73.189 8.14173 73.1531 5.52144C73.1351 3.43956 71.9147 1.5551 70.0662 0.711586C68.756 0.119328 66.8357 0.17317 65.5076 0.819269C63.0488 2.02173 61.9181 4.82149 62.8514 7.44179L63.2462 8.57246L60.7875 12.9157L58.3287 17.2769H46.5194H34.7102L32.2514 12.9336L29.8106 8.59041L30.2054 7.37C30.8336 5.39581 30.4567 3.4934 29.1286 1.96789C27.9262 0.603902 25.5392 -0.0601439 23.7086 0.460325ZM49.1756 27.7042C51.8139 28.6015 53.7881 30.7552 54.5239 33.5191C54.6675 34.0575 54.7752 35.3856 54.7752 36.7855V39.1724H55.9417H57.1083V48.505V57.8375H46.5194H35.9306V48.505V39.1724H37.0972H38.2637V36.7855C38.2637 35.4933 38.3535 34.0754 38.4432 33.6627C38.9816 31.3475 40.7943 29.1041 42.9838 28.0631C44.8863 27.1478 47.2014 27.0222 49.1756 27.7042Z" fill="#1976D2"/>
<path d="M45.8911 32.7114C45.0476 32.8908 44.3835 33.4113 43.9887 34.1651C43.7015 34.7394 43.6477 35.224 43.6477 37.0187V39.1724H46.5193H49.3908V37.0187C49.3908 35.224 49.337 34.7394 49.0319 34.1651C48.4755 33.0524 47.1115 32.4242 45.8911 32.7114Z" fill="#1976D2"/>
<path d="M41.3147 48.5047V52.4531H46.5194H51.7241V48.5047V44.5564H46.5194H41.3147V48.5047Z" fill="#1976D2"/>
</svg>
